<svg width="25" height="23" viewBox="0 0 25 23" fill="none" xmlns="http://www.w3.org/2000/svg">
<path d="M12.1392 0.168001C12.081 0.284575 11.469 2.0623 10.7987 4.10231L9.54551 7.83262L8.20493 7.86176C7.44722 7.8909 5.52378 7.97833 3.92091 8.0949C-0.0425424 8.32805 -0.0425424 8.59033 3.97919 11.6212C5.69863 12.9326 7.18493 14.0984 7.21407 14.2732C7.27236 14.4189 6.83521 16.1675 6.22321 18.1492C5.17406 21.6756 5.08663 22.6956 5.90263 22.6956C6.13578 22.6956 7.7095 21.7047 9.3998 20.5098C11.1192 19.315 12.6347 18.3241 12.8095 18.3241C12.9844 18.3241 14.529 19.315 16.2193 20.5098C20.6781 23.6864 21.057 23.395 19.3667 18.0618C18.813 16.2549 18.3467 14.6229 18.3467 14.4481C18.3467 14.2441 19.8039 12.9909 21.5816 11.6795C25.7199 8.56119 25.7199 8.32805 21.5524 8.0949C19.8621 7.97833 17.9387 7.8909 17.2684 7.86176L16.0735 7.83262L14.7913 3.95659C13.713 0.780005 13.3924 0.0805721 12.897 0.0222874C12.5472 -0.0359993 12.2267 0.0222874 12.1392 0.168001Z" fill="#FFB800"/>
</svg>
